<svg width="648" height="480" viewBox="0 0 648 480" fill="none" xmlns="http://www.w3.org/2000/svg">
<g clip-path="url(#clip0_1866_136)">
<mask id="mask0_1866_136" style="mask-type:alpha" maskUnits="userSpaceOnUse" x="15" y="16" width="576" height="450">
<path d="M206.3 35.2089C286.08 13.1789 458.63 -2.14109 544.71 60.5889C630.79 123.319 572.02 181.969 560.03 244.629C548.04 307.289 594.39 396.469 533.82 432.349C482.97 462.469 409.32 486.499 290.84 434.699C172.36 382.899 150.33 444.819 83.6504 409.099C16.9704 373.379 72.3404 324.369 69.9604 274.449C67.5804 224.529 -44.0396 205.509 58.0504 118.249C133.85 53.4689 206.3 35.2089 206.3 35.2089Z" fill="#E7F4FC"/>
</mask>
<g mask="url(#mask0_1866_136)">
<path d="M410.67 497.96L101.77 317.08L249.86 269.92L585.26 382.9L410.67 497.96Z" fill="#E7F4FC" stroke="black" stroke-miterlimit="10"/>
<path d="M101.77 317.08V325.1L410.7 516.47L585.26 396.58V382.9L410.67 497.96L101.77 317.08Z" fill="black" stroke="black" stroke-linecap="round" stroke-linejoin="round"/>
<path d="M288.929 336.04L254.799 351.15L336.419 390.88L376.579 373.53L288.929 336.04Z" stroke="black" stroke-linecap="round" stroke-linejoin="round"/>
<path d="M336.419 390.88L376.579 373.53V380.62L336.549 394.55L254.639 354.45L254.799 351.15L336.419 390.88Z" fill="black" stroke="black" stroke-linecap="round" stroke-linejoin="round"/>
<path d="M360.489 372.85L288.549 340.22" stroke="black" stroke-miterlimit="10"/>
<path d="M282.969 342.88L355.669 375.23" stroke="black" stroke-miterlimit="10"/>
<path d="M277.779 345.79L349.999 378.5" stroke="black" stroke-miterlimit="10"/>
<path d="M273.949 349.17L344.299 381.89" stroke="black" stroke-miterlimit="10"/>
<path d="M288.77 340.22L272.08 348.7" stroke="black" stroke-miterlimit="10"/>
<path d="M294.83 343.07L279.82 352.25" stroke="black" stroke-miterlimit="10"/>
<path d="M292.159 110.14L275.179 117.2C273.919 117.62 273.079 118.73 273.049 120.02L272.869 127.44C272.709 134.07 274.479 140.83 278.269 147.1C281.099 151.85 284.839 158.01 291.209 162.16L294.129 162.57C301.419 161.35 307.049 156.07 310.579 151.32C314.799 145.6 317.039 138.78 317.369 131.68L317.759 123.33C317.819 121.95 317.069 120.64 315.849 120.01L297.129 110.68C296.289 110.28 292.999 109.83 292.139 110.13H292.159V110.14Z" fill="black" stroke="black" stroke-linecap="round" stroke-linejoin="round"/>
<path d="M291.479 110.36L272.189 116.99C270.929 117.41 270.089 118.51 270.059 119.8L269.899 127.18C269.749 133.77 271.529 140.51 275.339 146.75C278.519 152.06 283.489 157.81 291.229 162.15C298.519 160.94 304.139 155.69 307.659 150.96C311.869 145.27 314.099 138.48 314.419 131.41L314.799 123.1C314.859 121.72 314.109 120.42 312.889 119.8L294.159 110.51C293.319 110.11 292.359 110.05 291.489 110.36H291.479Z" fill="#E7F4FC" stroke="black" stroke-linecap="round" stroke-linejoin="round"/>
<path d="M304.369 134.92C304.089 141.79 298.379 146.73 291.599 145.96C284.819 145.19 279.469 139.22 279.649 132.61C279.829 126 285.549 121.05 292.429 121.55C299.299 122.06 304.649 128.05 304.369 134.92Z" fill="#E7F4FC" stroke="black" stroke-linecap="round" stroke-linejoin="round"/>
<path d="M297.298 129.81C297.198 132.63 294.818 134.7 291.978 134.43C289.148 134.16 286.918 131.69 287.008 128.92C287.098 126.14 289.478 124.07 292.328 124.3C295.178 124.52 297.398 126.99 297.298 129.82V129.81Z" fill="#E7F4FC" stroke="black" stroke-linecap="round" stroke-linejoin="round"/>
<path d="M282.41 140.72C282.41 140.72 284.96 135.41 291.74 136.07C298.52 136.73 301.06 142.71 301.06 142.71C301.06 142.71 297.88 146.85 291.23 145.92C285.21 145.08 282.41 140.72 282.41 140.72Z" fill="#E7F4FC" stroke="black" stroke-linecap="round" stroke-linejoin="round"/>
<path d="M300.24 345.58L285.59 354.96" stroke="black" stroke-miterlimit="10"/>
<path d="M307.56 348.7L293.65 358.37" stroke="black" stroke-miterlimit="10"/>
<path d="M314.15 351.83L300.24 361.5" stroke="black" stroke-miterlimit="10"/>
<path d="M320.629 354.96L306.719 364.62" stroke="black" stroke-miterlimit="10"/>
<path d="M327.58 357.92L313.67 367.59" stroke="black" stroke-miterlimit="10"/>
<path d="M335.63 361.5L321.73 371.17" stroke="black" stroke-miterlimit="10"/>
<path d="M342.59 364.99L328.68 374.66" stroke="black" stroke-miterlimit="10"/>
<path d="M350.879 368.68L336.969 378.35" stroke="black" stroke-miterlimit="10"/>
<path d="M360.17 372.63L344.15 381.89" stroke="black" stroke-miterlimit="10"/>
<path d="M286.65 359.79L282.42 362.15L309.95 375.23L315.1 372.85L286.65 359.79Z" fill="#74BCFF" stroke="black" stroke-linecap="round" stroke-linejoin="round"/>
<path d="M285.619 149.34L287.229 277.26C287.249 278.93 297.179 294.83 298.769 295.36L465.299 350.26C478.639 354.95 482.689 347.65 483.659 334.61L495.249 155.15C495.379 153.43 495.869 146.62 486.889 146.62L297.299 139.47C296.219 139.43 285.619 148.26 285.629 149.34H285.619Z" fill="black" stroke="black" stroke-linecap="round" stroke-linejoin="round"/>
<path d="M285.68 146.4L287.26 282.36C287.3 285.73 289.47 288.71 292.67 289.77L465.71 347.45C471.34 349.33 477.22 345.4 477.66 339.48L491.14 154.09C491.43 150.11 488.36 146.68 484.37 146.53L292.96 139.31C288.95 139.16 285.64 142.39 285.68 146.4Z" fill="#E7F4FC" stroke="black" stroke-linecap="round" stroke-linejoin="round"/>
<path d="M291.209 272.45L467.009 323.45" stroke="black" stroke-linecap="round" stroke-linejoin="round"/>
<path d="M367.99 310.03C370.13 309.57 371.43 307.13 370.88 304.58C370.33 302.03 368.15 300.34 366.01 300.8C363.87 301.26 362.57 303.7 363.12 306.25C363.67 308.8 365.85 310.49 367.99 310.03Z" fill="#74BCFF" stroke="black" stroke-linecap="round" stroke-linejoin="round"/>
<path d="M280.68 339.51C274.74 329.41 257.29 290.39 257.29 290.39C257.29 290.39 258.38 282.04 259.83 278.05C261.28 274.06 264.91 261.72 264.18 259.18C263.45 256.64 252.93 251.92 251.84 251.56C250.75 251.2 253.29 245.03 249.3 243.58C245.31 242.13 243.86 244.31 243.86 244.31L242.36 254.43L237.69 261.73C237.69 261.73 234.79 259.55 231.52 257.74C228.25 255.93 220.63 255.2 220.27 258.1C219.91 261 226.44 263.54 228.62 265.36C230.8 267.17 233.7 275.88 236.24 278.42C238.78 280.96 242.77 286.4 242.77 286.4L244.22 291.12C244.22 291.12 249.19 338.92 249.79 350.8C250.38 362.68 252.17 394.17 255.73 398.92C259.29 403.67 259.89 406.64 269.99 403.08C280.09 399.52 281.87 394.76 284.25 384.07C286.63 373.38 286.63 349.62 280.69 339.52H280.68V339.51Z" fill="#E7F4FC" stroke="black" stroke-linecap="round" stroke-linejoin="round"/>
<path d="M223.869 423.72C223.869 423.72 235.079 417.53 246.829 414.96C260.259 423.68 272.199 430.65 279.019 435.02C285.139 450.27 291.599 470.04 287.169 480.23C280.419 495.76 232.809 435.69 226.059 434.34C219.309 432.99 223.069 428.27 223.869 423.71V423.72Z" fill="white" stroke="black" stroke-linecap="round" stroke-linejoin="round"/>
<path d="M277.07 444.58C260.47 425.13 237.23 418.02 237.23 418.02L201.66 433.2C201.66 433.2 197.51 432.77 190.87 424.7C184.23 416.64 184.11 406.16 184.11 406.16L188.38 382.92C188.38 382.92 213.99 365.37 217.31 357.78C217.34 357.7 217.39 357.62 217.43 357.54C222.56 365.5 244.9 399.96 249.09 403.32C253.83 407.11 268.06 407.59 274.23 401.9C280.4 396.21 283.24 392.41 281.82 383.88C281.82 383.88 272.33 363.48 267.12 354.47C261.9 345.46 250.52 313.2 244.83 303.24C240.75 296.1 239.1 291.16 236.22 287.71C233.9 283.76 231.36 280.47 229.17 278.1C223.48 271.93 207.83 270.51 204.51 269.09C201.19 267.67 200.72 267.19 181.74 261.5C162.77 255.81 141.42 252.49 126.25 264.35C126.25 264.35 105.85 288.54 97.7896 328.38C89.7296 368.22 89.2496 408.54 88.2996 415.65C87.6096 420.82 83.1596 440.54 79.8696 458.57V458.61C79.7396 459.34 79.6096 460.06 79.4796 460.78C79.4796 460.82 79.4696 460.86 79.4596 460.9C79.3396 461.6 79.2095 462.29 79.0895 462.99C79.0895 463.04 79.0696 463.1 79.0596 463.15C78.9396 463.83 78.8296 464.5 78.7096 465.17L78.6796 465.35C78.5696 466.01 78.4596 466.67 78.3496 467.32C78.3396 467.39 78.3296 467.45 78.3196 467.52C78.2196 468.16 78.1095 468.8 78.0195 469.43C78.0095 469.5 77.9996 469.57 77.9896 469.63C77.8896 470.26 77.7996 470.88 77.7096 471.5C77.7096 471.56 77.6896 471.61 77.6896 471.67C77.5996 472.29 77.5096 472.91 77.4196 473.51C77.4196 473.55 77.4096 473.6 77.3996 473.64C77.3096 474.25 77.2296 474.86 77.1596 475.45V475.53C77.0796 476.14 77.0096 476.74 76.9396 477.32C74.5696 497.24 95.4396 517.16 108.24 523.33C109.71 524.04 111.73 524.67 114.21 525.24C140 531.66 226.87 540.62 252.01 524.45C302.53 491.97 302.53 474.83 302.53 474.83C302.53 474.83 296.22 456.79 277.09 444.59H277.07V444.58Z" fill="#015E94" stroke="black" stroke-linecap="round" stroke-linejoin="round"/>
<path d="M237.36 178.76C237.36 178.76 239.8 187.3 239.8 195.23C239.8 203.16 237.36 208.04 241.02 210.48C244.68 212.92 250.37 218.02 250.08 219.58C249.49 222.79 244.07 225.12 244.07 225.12C244.07 225.12 242.85 250.13 241.63 252.57C240.41 255.01 224.55 251.96 220.89 251.35C217.23 250.74 206.86 255.62 200.15 242.2C193.44 228.78 198.93 208.65 211.13 198.27C223.33 187.9 237.36 178.75 237.36 178.75V178.76Z" fill="#E7F4FC" stroke="black" stroke-linecap="round" stroke-linejoin="round"/>
<path d="M261.289 176.95C256.979 206.59 218.609 184.72 212.039 208.78C208.479 221.81 210.019 234.22 216.729 241.54C223.439 248.86 226.989 255.02 216.009 266C205.029 276.98 205.889 293.93 185.319 288.15C162.769 281.82 169.359 301.61 154.669 305.41C141.449 308.83 139.709 293.06 125.029 288.91C80.1892 276.24 136.349 238.5 136.349 219.58C136.349 200.66 124.869 175.84 142.509 153.72C153.389 140.08 173.849 135.65 186.059 135.65C198.269 135.65 215.359 141.35 223.679 148.06C240.439 161.57 253.949 165.25 250.099 150.59C248.799 145.65 264.889 152.18 261.289 176.94V176.95Z" fill="black" stroke="black" stroke-linecap="round" stroke-linejoin="round"/>
<path d="M38.0488 369.96C38.0488 369.96 43.2888 366.54 49.9288 366.54C61.8888 366.54 62.5888 379.57 99.3488 389.08C136.109 398.59 165.639 390.11 176.839 404.68C184.969 415.26 182.769 432.87 182.769 439.09C182.769 445.31 182.189 493.84 182.189 493.84H175.079C140.929 493.82 73.0688 439.61 38.0488 369.96Z" fill="#74BCFF" stroke="black" stroke-linecap="round" stroke-linejoin="round"/>
<path d="M36.6793 392.43C36.6793 392.43 32.7093 369.6 39.3493 369.6C51.3093 369.6 56.0493 384.51 92.8193 394.01C129.589 403.51 159.109 395.04 170.309 409.61C178.439 420.19 176.239 437.8 176.239 444.02C176.239 450.24 175.079 493.83 175.079 493.83C175.079 493.83 88.5693 495.61 36.6793 392.43Z" fill="#E7F4FC" stroke="black" stroke-linecap="round" stroke-linejoin="round"/>
<path d="M291.209 286.51L290.359 304.75L309.359 311.59L310.589 292.46L291.209 286.51Z" fill="#E7F4FC" stroke="black" stroke-linecap="round" stroke-linejoin="round"/>
<path d="M314.15 312.6C314.15 312.6 318.06 303.1 317.93 294.74C326.29 296.51 335.63 297.95 335.63 297.95C335.63 297.95 336.42 312.6 332.62 319.57C324.92 316.53 314.15 312.6 314.15 312.6Z" fill="#E7F4FC" stroke="black" stroke-linecap="round" stroke-linejoin="round"/>
<path d="M297.289 294.74L303.489 296.39" stroke="black" stroke-linecap="round" stroke-linejoin="round"/>
<path d="M295.639 299.05L303.489 301.96" stroke="black" stroke-linecap="round" stroke-linejoin="round"/>
<path d="M323.379 301.96L329.579 303.48" stroke="black" stroke-linecap="round" stroke-linejoin="round"/>
<path d="M321.73 305.42L328.68 308.04" stroke="black" stroke-linecap="round" stroke-linejoin="round"/>
<path d="M545.299 362.86C545.299 362.86 537.919 390.55 536.679 394.96C534.939 398.65 514.009 401.11 505.299 390.65C504.229 387.16 502.189 356.54 502.189 356.54L545.299 362.86Z" fill="#E7F4FC" stroke="black" stroke-linecap="round" stroke-linejoin="round"/>
<path d="M545.29 361.99C545.69 358.93 536.41 355.18 524.55 353.61C512.69 352.04 502.75 353.25 502.35 356.31C501.95 359.37 511.23 363.12 523.09 364.69C534.95 366.26 544.89 365.05 545.3 361.99H545.29Z" fill="#E7F4FC" stroke="black" stroke-linecap="round" stroke-linejoin="round"/>
<path d="M532.999 365.41L527.779 398.03C527.779 398.03 533.719 398.04 536.699 394.97C537.859 390.73 545.319 362.87 545.319 362.87C545.319 362.87 542.449 365.39 533.009 365.41H532.999Z" fill="black" stroke="black" stroke-linecap="round" stroke-linejoin="round"/>
<path d="M539.779 354.28C539.779 354.28 545.669 352.47 547.739 343.44C549.809 334.4 553.299 321.7 550.109 318.64C546.929 315.59 540.789 313.65 539.699 319.41C538.609 325.17 539.339 336.41 537.989 338.84C536.629 341.27 532.569 339.42 532.789 334.45C533.159 326.26 536.909 318.04 536.049 309.63C534.879 298.09 523.379 296.31 521.559 308.91C520.549 315.9 520.029 323.06 519.709 330.12C519.579 333.02 514.529 334.45 515.269 327.43C515.789 322.41 512.449 316.51 507.399 317.94C502.349 319.37 505.499 341.51 506.979 345.31C508.459 349.11 518.779 350.41 518.779 350.41C518.779 350.41 518.429 358.96 518.349 359.94C524.849 362.86 530.759 360.92 530.759 360.92L531.609 351.41C531.609 351.41 535.639 354.08 539.779 354.27V354.28Z" fill="#74BCFF" stroke="black" stroke-linecap="round" stroke-linejoin="round"/>
<path d="M529.999 303.44C529.999 303.44 532.649 305.46 532.179 311.12C531.899 314.55 530.789 324.06 529.969 331.02" stroke="black" stroke-linecap="round" stroke-linejoin="round"/>
<path d="M524.49 322.77L523.43 336.62" stroke="black" stroke-linecap="round" stroke-linejoin="round"/>
<path d="M509.799 321.68C509.799 321.68 511.159 324.27 510.999 327.63C510.849 330.99 510.219 340.23 512.199 342.84C512.629 343.41 513.269 343.87 513.989 344.24" stroke="black" stroke-linecap="round" stroke-linejoin="round"/>
<path d="M544.96 341.96C543.95 344.9 542.75 347.29 541.21 348.38C537.29 351.15 533.85 348.26 533.85 348.26" stroke="black" stroke-linecap="round" stroke-linejoin="round"/>
<path d="M546.319 319.56C546.319 319.56 550.519 319.75 548.719 327.04C547.959 330.11 547.199 333.89 546.289 337.44" stroke="black" stroke-linecap="round" stroke-linejoin="round"/>
<path d="M342.59 339.58V344.31L377.76 356.66C377.76 356.66 404.31 344.69 406.81 343.46C409.31 342.23 413.61 340.88 413.82 335.1C413.98 330.71 413.82 330.15 413.82 330.15L410.1 329.19C410.1 329.19 410.25 329.86 410.25 331.51C410.25 335.86 408.96 337.08 406.18 338.36C403.4 339.64 377.59 351.5 377.59 351.5L342.59 339.59V339.58Z" fill="black" stroke="black" stroke-linecap="round" stroke-linejoin="round"/>
<path d="M376.58 317.74V321.22C376.58 321.22 377.21 325.53 373.79 326.79C370.37 328.06 342.59 339.58 342.59 339.58L377.59 351.49C377.59 351.49 404.4 339.28 406.18 338.35C410.25 336.23 410.25 333.87 410.25 331.5C410.25 329.9 410.1 329.18 410.1 329.18L376.58 317.72V317.74Z" stroke="black" stroke-linecap="round" stroke-linejoin="round"/>
<path d="M439.429 424.46C440.189 417.27 429.189 410.21 414.859 408.69C400.529 407.18 388.299 411.78 387.539 418.98C386.779 426.18 397.779 433.24 412.109 434.75C426.439 436.26 438.669 431.66 439.429 424.46Z" fill="#74BCFF" stroke="black" stroke-linecap="round" stroke-linejoin="round"/>
<path d="M433.909 423.2C434.469 417.93 425.799 412.69 414.559 411.5C403.319 410.31 393.749 413.62 393.199 418.9C392.639 424.17 401.309 429.41 412.549 430.6C423.789 431.79 433.359 428.48 433.909 423.2Z" fill="#E7F4FC" stroke="black" stroke-linecap="round" stroke-linejoin="round"/>
<path d="M392.44 397.38C392.44 397.38 393.94 420.06 404.68 425C410.24 427.56 420.06 428.41 426.12 424.42C427.57 423.47 433.56 413.68 434.46 401.81C435.36 389.95 392.43 397.37 392.43 397.37H392.44V397.38Z" fill="#E7F4FC" stroke="black" stroke-linecap="round" stroke-linejoin="round"/>
<path d="M434.5 401.84C435.11 396.01 426.21 390.29 414.6 389.07C403 387.84 393.09 391.57 392.47 397.4C391.85 403.23 400.76 408.94 412.37 410.17C423.97 411.4 433.88 407.66 434.5 401.84Z" fill="#E7F4FC" stroke="black" stroke-linecap="round" stroke-linejoin="round"/>
<path d="M414.239 393.47C403.619 392.35 394.549 395.76 393.989 401.09C393.929 401.65 393.989 402.12 394.589 402.9C396.209 404.55 399.249 406.53 400.339 406.99C415.079 413.25 426.329 409.23 428.299 408.31C430.199 407.43 430.789 407.09 431.809 406.16C435.089 399.6 424.849 394.58 414.229 393.46H414.239V393.47Z" fill="black" stroke="black" stroke-miterlimit="10"/>
<path d="M79.2996 243.51V157.17L15.0996 146.1V218.31L79.2996 243.51Z" stroke="black" stroke-miterlimit="10"/>
<path d="M74.4287 235.14V162.79L19.9688 152.49V214.67L74.4287 235.14Z" stroke="black" stroke-miterlimit="10"/>
<path d="M60.8305 212.6V177.65L33.5605 171.22V203.62L60.8305 212.6Z" stroke="black" stroke-miterlimit="10"/>
<path d="M193.739 159.36V47.82L83.3887 56.9V144.15L193.739 159.36Z" stroke="black" stroke-miterlimit="10"/>
<path d="M185.37 149.89V56.82L91.7598 62.97V138.55L185.37 149.89Z" stroke="black" stroke-miterlimit="10"/>
<path d="M161.999 124.91V80.5L115.129 81.39V121.42L161.999 124.91Z" stroke="black" stroke-miterlimit="10"/>
<path d="M485.849 79.82L468.349 90.13C467.059 90.78 466.129 92.17 466.009 93.67L465.279 102.27C464.629 109.95 465.909 117.52 469.269 124.2C471.779 129.26 475.099 135.79 481.229 139.6L484.149 139.63C491.589 137.14 497.619 130.29 501.499 124.37C506.119 117.27 508.839 109.21 509.639 101.1L510.589 91.56C510.749 89.98 510.079 88.6 508.899 88.04L490.809 79.81C489.999 79.45 486.739 79.35 485.859 79.81H485.849V79.82Z" fill="black" stroke="black" stroke-linecap="round" stroke-linejoin="round"/>
<path d="M485.149 80.17L465.359 90.29C464.069 90.94 463.149 92.33 463.019 93.81L462.309 102.37C461.669 110.02 462.959 117.56 466.329 124.22C469.149 129.88 473.729 135.76 481.229 139.59C488.659 137.11 494.689 130.28 498.559 124.38C503.179 117.3 505.879 109.27 506.669 101.19L507.609 91.69C507.769 90.12 507.099 88.74 505.919 88.18L487.809 79.99C486.999 79.64 486.039 79.7 485.149 80.16V80.17Z" fill="#E7F4FC" stroke="black" stroke-linecap="round" stroke-linejoin="round"/>
<path d="M481.558 118.75L471.668 109.3L475.028 104.98L481.678 111.27L493.498 97.4L496.748 100.96L481.558 118.75Z" fill="black" stroke="black" stroke-linecap="round" stroke-linejoin="round"/>
<path d="M292.389 266.24L468.619 314.52L481.099 158.57L292.389 147.58V266.24Z" fill="#E7F4FC" stroke="black" stroke-linecap="round" stroke-linejoin="round"/>
<path d="M305.099 179.64L298.359 178.89L298.389 170.88L305.159 171.54L305.099 179.64Z" stroke="black" stroke-linecap="round" stroke-linejoin="round"/>
<path d="M475.998 171.95L470.238 171.52L470.908 162.83L476.678 163.2L475.998 171.95Z" stroke="black" stroke-miterlimit="10"/>
<path d="M309.52 175.73L321.39 176.96" stroke="black" stroke-linecap="round" stroke-linejoin="round"/>
<path d="M304.999 194.58L298.309 193.67L298.339 185.65L305.059 186.48L304.999 194.58Z" fill="white" stroke="black" stroke-linecap="round" stroke-linejoin="round"/>
<path d="M309.379 190.78L326.409 192.98" stroke="black" stroke-linecap="round" stroke-linejoin="round"/>
<path d="M304.89 209.38L298.27 208.3L298.29 200.29L304.95 201.28L304.89 209.38Z" stroke="black" stroke-linecap="round" stroke-linejoin="round"/>
<path d="M309.238 205.68L320.918 207.5" stroke="black" stroke-linecap="round" stroke-linejoin="round"/>
<path d="M304.789 224.68L298.209 223.43L298.239 215.41L304.839 216.57L304.789 224.68Z" stroke="black" stroke-linecap="round" stroke-linejoin="round"/>
<path d="M361.629 192.49L348.859 190.94L348.989 186.8L361.779 188.27L361.629 192.49Z" stroke="black" stroke-linecap="round" stroke-linejoin="round"/>
<path d="M309.088 221.09L325.838 224.15" stroke="black" stroke-linecap="round" stroke-linejoin="round"/>
<path d="M349.189 179.98L366.359 181.76" stroke="black" stroke-linecap="round" stroke-linejoin="round"/>
<path d="M402.048 248.88L347.488 238L347.718 230.15L402.498 240.34L402.048 248.88Z" stroke="black" stroke-linecap="round" stroke-linejoin="round"/>
<path d="M347.828 226.25L364.598 229.26" stroke="black" stroke-linecap="round" stroke-linejoin="round"/>
<path d="M459.898 260.41L405.338 249.54L405.808 240.96L460.598 251.15L459.898 260.41Z" stroke="black" stroke-linecap="round" stroke-linejoin="round"/>
<path d="M406.049 236.7L422.809 239.71" stroke="black" stroke-linecap="round" stroke-linejoin="round"/>
<path d="M400.999 268.32L346.959 255.9L347.189 248.04L401.459 259.79L400.999 268.32Z" stroke="black" stroke-linecap="round" stroke-linejoin="round"/>
<path d="M347.309 244.14L363.909 247.62" stroke="black" stroke-linecap="round" stroke-linejoin="round"/>
<path d="M458.31 281.5L404.27 269.07L404.74 260.5L459.01 272.24L458.31 281.5Z" fill="#74BCFF" stroke="black" stroke-linecap="round" stroke-linejoin="round"/>
<path d="M404.969 256.24L415.379 258.42" stroke="black" stroke-linecap="round" stroke-linejoin="round"/>
<path d="M400.019 286.64L346.469 272.75L346.699 264.9L400.479 278.1L400.019 286.64Z" fill="#74BCFF" stroke="black" stroke-linecap="round" stroke-linejoin="round"/>
<path d="M346.809 261L372.679 267.17" stroke="black" stroke-linecap="round" stroke-linejoin="round"/>
<path d="M456.808 301.37L403.248 287.48L403.728 278.9L457.508 292.11L456.808 301.37Z" stroke="black" stroke-linecap="round" stroke-linejoin="round"/>
<path d="M403.959 274.64L420.419 278.57" stroke="black" stroke-linecap="round" stroke-linejoin="round"/>
<path d="M347.998 220.34L383.078 226.29" stroke="black" stroke-linecap="round" stroke-linejoin="round"/>
<path d="M348.498 203.49L462.528 219.67" stroke="black" stroke-linecap="round" stroke-linejoin="round"/>
<path d="M348.389 207.19L379.499 211.79" stroke="black" stroke-linecap="round" stroke-linejoin="round"/>
<path d="M349.088 183.35L448.558 194.22" stroke="black" stroke-linecap="round" stroke-linejoin="round"/>
<path d="M304.678 239.62L298.158 238.2L298.188 230.18L304.738 231.51L304.678 239.62Z" stroke="black" stroke-linecap="round" stroke-linejoin="round"/>
<path d="M308.949 236.14L317.249 237.88" stroke="black" stroke-linecap="round" stroke-linejoin="round"/>
<path d="M304.579 254.42L298.119 252.83L298.139 244.82L304.629 246.31L304.579 254.42Z" stroke="black" stroke-linecap="round" stroke-linejoin="round"/>
<path d="M308.809 251.05L321.679 254.1" stroke="black" stroke-linecap="round" stroke-linejoin="round"/>
<path d="M304.478 268.43L298.068 266.69L298.098 258.67L304.538 260.33L304.478 268.43Z" stroke="black" stroke-linecap="round" stroke-linejoin="round"/>
<path d="M308.678 265.16L325.008 269.47" stroke="black" stroke-linecap="round" stroke-linejoin="round"/>
<path d="M333.319 277.46L292.389 266.24V162.25L335.859 165.87L333.319 277.46Z" stroke="black" stroke-linecap="round" stroke-linejoin="round"/>
<path d="M481.099 158.57L292.389 147.58V162.25L479.559 177.84L481.099 158.57Z" stroke="black" stroke-linecap="round" stroke-linejoin="round"/>
<path d="M468.179 209.55L344.529 193.84L345.039 175.03L469.909 187.1L468.179 209.55Z" stroke="black" stroke-linecap="round" stroke-linejoin="round"/>
<path d="M466.678 229.01L344.078 210.15L344.418 197.78L467.808 214.25L466.678 229.01Z" stroke="black" stroke-linecap="round" stroke-linejoin="round"/>
<path d="M333.319 277.46L329.799 276.49L332.119 165.56L335.859 165.87L333.319 277.46Z" stroke="black" stroke-linecap="round" stroke-linejoin="round"/>
<path d="M333.319 277.11L329.799 276.15L331.049 216.64L334.689 217.25L333.319 277.11Z" fill="black" stroke="black" stroke-linecap="round" stroke-linejoin="round"/>
<path d="M395.309 280.36L396.539 282.47L398.069 281.05" stroke="black" stroke-linecap="round" stroke-linejoin="round"/>
<path d="M453.258 274.69L454.458 276.91L456.058 275.31" stroke="black" stroke-linecap="round" stroke-linejoin="round"/>
<path fill-rule="evenodd" clip-rule="evenodd" d="M298.448 152.54L299.678 152.62V154.4L300.908 154.49V152.7L302.148 152.78L302.118 157.58L300.888 157.49V155.38L299.668 155.29V157.39L298.428 157.3L298.448 152.53V152.54ZM306.058 157.87L305.078 157.8V157.22C304.928 157.45 304.718 157.6 304.558 157.69C304.398 157.78 304.198 157.81 303.968 157.8C303.658 157.78 303.418 157.65 303.238 157.41C303.068 157.17 302.978 156.82 302.978 156.35V154.08L304.108 154.16V156.12C304.098 156.34 304.138 156.51 304.208 156.6C304.278 156.7 304.368 156.75 304.498 156.76C304.628 156.76 304.738 156.71 304.828 156.6C304.918 156.48 305.038 156.26 305.038 155.94L305.098 154.22L306.088 154.29L306.058 157.87ZM306.568 156.92L307.688 156.87C307.728 157.04 307.798 157.16 307.878 157.23C307.958 157.31 308.068 157.35 308.208 157.36C308.358 157.37 308.478 157.34 308.558 157.27C308.628 157.22 308.658 157.14 308.658 157.06C308.658 156.96 308.618 156.88 308.538 156.82C308.478 156.78 308.318 156.72 308.058 156.64C307.668 156.53 307.398 156.43 307.248 156.35C307.098 156.27 306.968 156.14 306.868 155.96C306.768 155.78 306.718 155.59 306.718 155.37C306.718 155.13 306.778 154.93 306.888 154.77C306.998 154.61 307.158 154.49 307.358 154.42C307.558 154.35 307.818 154.32 308.158 154.35C308.508 154.37 308.768 154.42 308.928 154.5C309.098 154.58 309.228 154.69 309.338 154.83C309.448 154.98 309.538 155.17 309.608 155.41L308.538 155.46C308.508 155.34 308.468 155.25 308.398 155.2C308.308 155.12 308.208 155.08 308.078 155.07C307.948 155.06 307.858 155.08 307.798 155.13C307.738 155.18 307.708 155.25 307.708 155.33C307.708 155.42 307.738 155.49 307.818 155.54C307.888 155.59 308.048 155.64 308.298 155.69C308.668 155.77 308.948 155.86 309.128 155.96C309.308 156.07 309.448 156.21 309.538 156.39C309.628 156.57 309.678 156.76 309.678 156.97C309.678 157.18 309.628 157.38 309.518 157.56C309.418 157.75 309.248 157.89 309.028 157.99C308.808 158.09 308.508 158.13 308.128 158.1C307.588 158.06 307.208 157.94 306.988 157.73C306.758 157.53 306.618 157.25 306.558 156.9L306.568 156.92ZM310.298 153.32L311.388 153.39L311.368 155.11C311.518 154.93 311.678 154.8 311.828 154.72C311.978 154.65 312.158 154.62 312.368 154.63C312.678 154.65 312.918 154.78 313.088 155.02C313.258 155.26 313.348 155.62 313.338 156.1L313.308 158.4L312.178 158.32L312.198 156.33C312.198 156.1 312.168 155.94 312.098 155.84C312.028 155.74 311.938 155.69 311.808 155.68C311.668 155.68 311.558 155.73 311.478 155.85C311.388 155.97 311.348 156.2 311.348 156.52L311.328 158.25L310.238 158.17L310.288 153.31L310.298 153.32Z" fill="#005E93"/>
<path fill-rule="evenodd" clip-rule="evenodd" d="M327.048 160.77C326.198 158.91 327.458 156.02 329.878 154.3C332.308 152.56 334.968 152.66 335.808 154.53C336.658 156.41 335.378 159.34 332.958 161.06C330.538 162.77 327.898 162.63 327.048 160.77ZM328.098 160.11C328.778 161.55 330.818 161.63 332.658 160.27C334.498 158.91 335.438 156.62 334.758 155.17C334.078 153.73 332.028 153.68 330.188 155.05C328.348 156.41 327.418 158.67 328.098 160.11Z" fill="#EC5918"/>
<path fill-rule="evenodd" clip-rule="evenodd" d="M314.338 154.93L315.388 155L315.308 155.52C315.498 155.31 315.668 155.17 315.838 155.08C316.008 155 316.198 154.96 316.418 154.98C316.648 155 316.828 155.06 316.948 155.17C317.068 155.28 317.158 155.44 317.208 155.65C317.418 155.43 317.608 155.28 317.768 155.2C317.928 155.12 318.118 155.09 318.328 155.11C318.648 155.13 318.868 155.26 319.008 155.51C319.148 155.75 319.178 156.12 319.098 156.61L318.738 158.8L317.608 158.72L317.928 156.74C317.958 156.58 317.948 156.45 317.908 156.37C317.848 156.24 317.768 156.17 317.658 156.16C317.528 156.16 317.408 156.2 317.308 156.31C317.208 156.42 317.138 156.61 317.098 156.87L316.808 158.65L315.678 158.57L315.988 156.67C316.018 156.51 316.018 156.4 316.018 156.35C316.018 156.26 315.978 156.18 315.928 156.12C315.878 156.06 315.818 156.03 315.738 156.02C315.608 156.02 315.488 156.06 315.388 156.18C315.288 156.29 315.218 156.49 315.168 156.76L314.878 158.51L313.748 158.43L314.308 154.92L314.338 154.93ZM320.838 156.56L319.788 156.34C319.868 156.11 319.958 155.93 320.048 155.8C320.148 155.67 320.278 155.56 320.438 155.48C320.558 155.42 320.698 155.37 320.888 155.34C321.078 155.31 321.278 155.31 321.488 155.32C321.828 155.34 322.088 155.39 322.288 155.45C322.488 155.51 322.638 155.62 322.748 155.78C322.828 155.89 322.878 156.04 322.908 156.23C322.938 156.42 322.928 156.6 322.908 156.78L322.658 158.31C322.628 158.48 322.618 158.62 322.618 158.72C322.618 158.82 322.638 158.93 322.678 159.08L321.628 159C321.598 158.9 321.588 158.85 321.578 158.8C321.578 158.75 321.578 158.67 321.578 158.57C321.408 158.73 321.238 158.75 321.078 158.81C320.858 158.9 320.628 158.93 320.358 158.91C320.008 158.88 319.758 158.76 319.608 158.55C319.458 158.34 319.408 158.08 319.458 157.79C319.498 157.52 319.598 157.29 319.758 157.13C319.918 156.96 320.178 156.85 320.548 156.79C320.988 156.72 321.268 156.74 321.408 156.71C321.538 156.68 321.678 156.73 321.828 156.67C321.858 156.5 321.848 156.38 321.798 156.3C321.748 156.23 321.658 156.19 321.518 156.18C321.338 156.17 321.188 156.19 321.088 156.26C321.008 156.31 320.928 156.42 320.858 156.57L320.838 156.56ZM321.698 157.36C321.528 157.42 321.358 157.47 321.188 157.51C320.948 157.57 320.788 157.63 320.718 157.7C320.638 157.77 320.598 157.85 320.588 157.95C320.568 158.06 320.588 158.15 320.638 158.23C320.688 158.31 320.778 158.35 320.898 158.35C321.018 158.35 321.148 158.33 321.268 158.26C321.388 158.19 321.478 158.11 321.538 158C321.598 157.89 321.648 157.76 321.678 157.58L321.718 157.36H321.698ZM324.038 154.22L325.168 154.29L325.018 155.21L323.888 155.13L324.038 154.21V154.22ZM323.818 155.57L324.948 155.65L324.368 159.2L323.248 159.12L323.828 155.58L323.818 155.57ZM325.928 154.34L327.058 154.41L326.248 159.33L325.118 159.25L325.928 154.34Z" fill="#666666"/>
<path d="M331.618 157.65C332.188 157.69 332.658 157.14 332.678 156.41C332.698 155.68 332.248 155.07 331.678 155.03C331.108 154.99 330.638 155.55 330.618 156.27C330.598 156.99 331.048 157.61 331.618 157.65Z" fill="black"/>
<path fill-rule="evenodd" clip-rule="evenodd" d="M331.639 156.97L332.309 157.02L332.609 160.1L331.569 160.02L330.529 159.94L330.959 156.92L331.629 156.97H331.639Z" fill="black"/>
<path d="M376.628 236.02L324.818 226.34L325.158 207.17L377.518 215.22L376.628 236.02Z" fill="#74BCFF" stroke="black" stroke-linecap="round" stroke-linejoin="round"/>
<path d="M338.378 224.5L329.768 222.96L329.998 211.93L338.658 213.32L338.378 224.5Z" fill="white" stroke="black" stroke-linecap="round" stroke-linejoin="round"/>
<path d="M344.129 219.43L366.089 223.14" stroke="black" stroke-linecap="round" stroke-linejoin="round"/>
<path d="M350.218 203.73L297.658 196.28L297.708 177.97L350.818 183.8L350.218 203.73Z" fill="#74BCFF" stroke="black" stroke-linecap="round" stroke-linejoin="round"/>
<path d="M311.349 194.06L302.619 192.88L302.679 182.34L311.459 183.37L311.349 194.06Z" fill="white" stroke="black" stroke-linecap="round" stroke-linejoin="round"/>
<path d="M317.098 189L339.358 191.78" stroke="black" stroke-linecap="round" stroke-linejoin="round"/>
<path d="M372.269 99L348.069 111.62C346.279 112.41 345.069 114.09 345.009 115.9L344.659 126.3C344.349 135.58 346.749 144.79 352.009 153.04C355.929 159.32 361.099 167.46 369.999 172.46L374.099 172.66C384.389 169.97 392.439 161.74 397.519 154.51C403.599 145.79 406.939 135.75 407.569 125.59L408.319 113.64C408.439 111.66 407.409 109.92 405.689 109.22L379.329 98.99C378.149 98.55 373.489 98.45 372.259 99.02V99H372.269Z" fill="black" stroke="black" stroke-linecap="round" stroke-linejoin="round"/>
<path d="M371.289 99.44L343.819 111.81C342.029 112.59 340.829 114.26 340.769 116.06L340.439 126.39C340.149 135.61 342.569 144.76 347.859 152.96C352.269 159.96 359.179 167.36 369.999 172.46C380.279 169.79 388.309 161.6 393.379 154.41C399.439 145.74 402.759 135.76 403.369 125.65L404.089 113.77C404.209 111.8 403.169 110.07 401.449 109.37L375.069 99.21C373.889 98.78 372.519 98.86 371.289 99.43V99.44Z" fill="#E7F4FC" stroke="black" stroke-linecap="round" stroke-linejoin="round"/>
<path d="M364.44 128.55L364.56 125.72C364.69 122.73 367.88 118.04 373.48 117.87C379.4 117.68 381.82 122.3 381.67 125.37L381.52 128.27C381.52 128.51 381.2 128.7 380.84 128.71L365.08 128.96C364.72 128.96 364.43 128.78 364.44 128.55Z" stroke="#8EC24B" stroke-width="5" stroke-linecap="round" stroke-linejoin="round"/>
<path d="M357.54 126.68L388.62 126.07L387.5 146.63L356.75 146.34L357.54 126.68Z" fill="#8EC24B"/>
<path d="M372.35 141.85L372.49 138.95" stroke="#E7F4FC" stroke-width="3" stroke-linecap="round"/>
<path d="M372.49 138.8C370.84 138.8 369.56 137.48 369.64 135.85C369.72 134.22 371.12 132.88 372.77 132.86C374.43 132.84 375.7 134.16 375.62 135.81C375.54 137.46 374.14 138.79 372.49 138.8Z" stroke="#E7F4FC" stroke-width="3"/>
</g>
<path d="M206.3 35.29C286.08 13.26 458.63 -2.05998 544.71 60.67C630.79 123.4 572.02 182.05 560.03 244.71C548.04 307.37 594.39 396.55 533.82 432.43C482.97 462.55 409.32 486.58 290.84 434.78C172.36 382.98 150.33 444.9 83.6504 409.18C16.9704 373.46 72.3404 324.45 69.9604 274.53C67.5804 224.61 -44.0396 205.59 58.0504 118.33C133.85 53.55 206.3 35.29 206.3 35.29Z" stroke="black" stroke-linecap="round" stroke-linejoin="round"/>
<path d="M127.41 420.97C127.41 420.97 133.6 461.8 176.53 460.68C199.01 460.09 246.68 443.29 275.91 453.32C305.13 463.35 327.98 466.56 351.83 456.03" stroke="black" stroke-linecap="round" stroke-linejoin="round"/>
<path d="M590.031 147.02C591.811 199.91 619.511 198.81 628.371 265.47C632.601 297.27 623.831 377.34 553.461 414.4" stroke="black" stroke-linecap="round" stroke-linejoin="round"/>
<path d="M620.701 362.31C635.32 362.31 647.17 350.46 647.17 335.84C647.17 321.22 635.32 309.37 620.701 309.37C606.081 309.37 594.23 321.22 594.23 335.84C594.23 350.46 606.081 362.31 620.701 362.31Z" fill="#E7F4FC" stroke="black" stroke-linecap="round" stroke-linejoin="round"/>
<path d="M315.17 36.99C326.63 36.99 335.93 28.77 335.93 18.64C335.93 8.51003 326.64 0.280029 315.17 0.280029C303.7 0.280029 294.41 8.50003 294.41 18.63C294.41 28.76 303.7 36.98 315.17 36.98V36.99Z" fill="#E7F4FC" stroke="black" stroke-linecap="round" stroke-linejoin="round"/>
<path d="M213.231 479.63C223.321 479.63 231.501 471.98 231.501 462.55C231.501 453.12 223.321 445.47 213.231 445.47C203.141 445.47 194.961 453.12 194.961 462.55C194.961 471.98 203.141 479.63 213.231 479.63Z" fill="black"/>
<path d="M592.2 262.11C599.18 262.11 604.83 256.46 604.83 249.48C604.83 242.5 599.18 236.85 592.2 236.85C585.22 236.85 579.57 242.5 579.57 249.48C579.57 256.46 585.22 262.11 592.2 262.11Z" fill="black"/>
<path d="M359.151 23.77C363.401 23.77 366.841 20.33 366.841 16.08C366.841 11.83 363.401 8.39001 359.151 8.39001C354.901 8.39001 351.461 11.83 351.461 16.08C351.461 20.33 354.901 23.77 359.151 23.77Z" fill="black"/>
<path d="M20.3103 230.42C34.2403 237.12 57.5303 269.99 52.4403 296.42C47.3403 322.85 21.4103 345.38 24.2603 321.02C27.1103 296.66 14.5503 272.95 7.81028 258.96C-9.59972 222.83 6.39028 223.72 20.3203 230.42H20.3103Z" fill="#E7F4FC" stroke="black" stroke-linecap="round" stroke-linejoin="round"/>
</g>
<defs>
<clipPath id="clip0_1866_136">
<rect width="648" height="480" fill="white"/>
</clipPath>
</defs>
</svg>
